<?xml version="1.0" encoding="iso-8859-1"?>
<!-- Generator: Adobe Illustrator 19.0.0, SVG Export Plug-In . SVG Version: 6.00 Build 0)  -->
<svg width="24px" height="24px" version="1.1" id="Capa_1" xmlns="http://www.w3.org/2000/svg" xmlns:xlink="http://www.w3.org/1999/xlink" x="0px" y="0px"
	 viewBox="0 0 69.606 69.606" style="enable-background:new 0 0 69.606 69.606;" xml:space="preserve">
<g>
	<path d="M34.803,0C15.613,0,0,15.612,0,34.802s15.612,34.804,34.803,34.804s34.803-15.613,34.803-34.804
		C69.606,15.612,53.993,0,34.803,0z M34.803,63.606C18.921,63.606,6,50.685,6,34.802C6,18.921,18.921,6,34.803,6
		s28.803,12.92,28.803,28.802C63.606,50.685,50.685,63.606,34.803,63.606z"/>
	<path d="M47.925,17.751l-19.922,8.376c-0.042,0.015-0.081,0.037-0.123,0.053c-0.013,0.005-0.026,0.012-0.039,0.017
		c-0.172,0.071-0.335,0.157-0.49,0.258c-0.004,0.002-0.008,0.005-0.012,0.007c-0.04,0.026-0.083,0.047-0.122,0.076
		c-0.51,0.365-0.894,0.884-1.096,1.481l-8.37,19.904c-0.473,1.124-0.218,2.422,0.644,3.284c0.574,0.574,1.342,0.879,2.122,0.879
		c0.392,0,0.787-0.076,1.162-0.234l19.929-8.38c0.056-0.02,0.106-0.047,0.16-0.069c0.009-0.003,0.017-0.007,0.025-0.011
		c0.152-0.064,0.299-0.142,0.438-0.23c0.033-0.021,0.067-0.039,0.1-0.061c0.012-0.009,0.024-0.015,0.036-0.022
		c0.135-0.095,0.261-0.201,0.377-0.315c0.009-0.009,0.019-0.014,0.027-0.022c0.04-0.04,0.068-0.088,0.105-0.13
		c0.073-0.082,0.145-0.164,0.208-0.254c0.058-0.08,0.106-0.163,0.155-0.247c0.036-0.063,0.069-0.126,0.101-0.19
		c0.048-0.101,0.093-0.2,0.129-0.305c0.005-0.014,0.013-0.026,0.018-0.04l8.366-19.896c0.473-1.124,0.218-2.422-0.645-3.284
		C50.348,17.533,49.051,17.279,47.925,17.751z M39.605,35.332L34.272,30l9.201-3.868L39.605,35.332z M30.018,34.232l5.355,5.354
		l-9.241,3.886L30.018,34.232z"/>
</g>
<g>
</g>
<g>
</g>
<g>
</g>
<g>
</g>
<g>
</g>
<g>
</g>
<g>
</g>
<g>
</g>
<g>
</g>
<g>
</g>
<g>
</g>
<g>
</g>
<g>
</g>
<g>
</g>
<g>
</g>
</svg>
